<global>
amp_veltrack=0
ampeg_attack=0.01
ampeg_release=0.65
xfin_hicc1=127
xfin_locc1=0
xfout_hicc1=127
xfout_locc1=127

<group>
group_label=Group

<region>
hikey=A4
hivel=42
lokey=G#4
lovel=0
offset=894
pitch_keycenter=G#4
sample=Tuba_fall_PP_G#4.opus

<region>
hikey=A3
hivel=42
lokey=G#3
lovel=0
pitch_keycenter=G#3
sample=Tuba_fall_PP_G#3.opus

<region>
hikey=A2
hivel=42
lokey=G#2
lovel=0
offset=2235
pitch_keycenter=G#2
sample=Tuba_fall_PP_G#2.opus

<region>
hikey=G4
hivel=42
lokey=F#4
lovel=0
offset=2587
pitch_keycenter=F#4
sample=Tuba_fall_PP_F#4.opus

<region>
hikey=G3
hivel=42
lokey=F#3
lovel=0
offset=3177
pitch_keycenter=F#3
sample=Tuba_fall_PP_F#3.opus

<region>
hikey=G2
hivel=42
lokey=F#2
lovel=0
offset=1723
pitch_keycenter=F#2
sample=Tuba_fall_PP_F#2.opus

<region>
hikey=F4
hivel=42
lokey=E4
lovel=0
offset=1270
pitch_keycenter=E4
sample=Tuba_fall_PP_E4.opus

<region>
hikey=F3
hivel=42
lokey=E3
lovel=0
offset=1237
pitch_keycenter=E3
sample=Tuba_fall_PP_E3.opus

<region>
hikey=F2
hivel=42
lokey=E2
lovel=0
offset=1833
pitch_keycenter=E2
sample=Tuba_fall_PP_E2.opus

<region>
hikey=D#4
hivel=42
lokey=D4
lovel=0
offset=1683
pitch_keycenter=D4
sample=Tuba_fall_PP_D4.opus

<region>
hikey=D#3
hivel=42
lokey=D3
lovel=0
offset=611
pitch_keycenter=D3
sample=Tuba_fall_PP_D3.opus

<region>
hikey=D#2
hivel=42
lokey=D2
lovel=0
offset=1594
pitch_keycenter=D2
sample=Tuba_fall_PP_D2.opus

<region>
hivel=42
key=C5
lovel=0
offset=1894
sample=Tuba_fall_PP_C5.opus

<region>
hikey=C#4
hivel=42
lokey=C4
lovel=0
offset=2486
sample=Tuba_fall_PP_C4.opus

<region>
hikey=C#3
hivel=42
lokey=C3
lovel=0
offset=979
pitch_keycenter=C3
sample=Tuba_fall_PP_C3.opus

<region>
hikey=B4
hivel=42
lokey=A#4
lovel=0
offset=2557
pitch_keycenter=A#4
sample=Tuba_fall_PP_A#4.opus

<region>
hikey=B3
hivel=42
lokey=A#3
lovel=0
offset=1157
pitch_keycenter=A#3
sample=Tuba_fall_PP_A#3.opus

<region>
hikey=B2
hivel=42
lokey=A#2
lovel=0
offset=1552
pitch_keycenter=A#2
sample=Tuba_fall_PP_A#2.opus

<region>
hikey=A4
hivel=84
lokey=G#4
lovel=43
offset=20586
pitch_keycenter=G#4
sample=Tuba_fall_MF_G#4.opus

<region>
hikey=A3
hivel=84
lokey=G#3
lovel=43
offset=1832
pitch_keycenter=G#3
sample=Tuba_fall_MF_G#3.opus

<region>
hikey=A2
hivel=84
lokey=G#2
lovel=43
offset=3358
pitch_keycenter=G#2
sample=Tuba_fall_MF_G#2.opus

<region>
hikey=G4
hivel=84
lokey=F#4
lovel=43
offset=19533
pitch_keycenter=F#4
sample=Tuba_fall_MF_F#4.opus

<region>
hikey=G3
hivel=84
lokey=F#3
lovel=43
offset=2095
pitch_keycenter=F#3
sample=Tuba_fall_MF_F#3.opus

<region>
hikey=G2
hivel=84
lokey=F#2
lovel=43
offset=1616
pitch_keycenter=F#2
sample=Tuba_fall_MF_F#2.opus

<region>
hikey=F4
hivel=84
lokey=E4
lovel=43
offset=2549
pitch_keycenter=E4
sample=Tuba_fall_MF_E4.opus

<region>
hikey=F3
hivel=84
lokey=E3
lovel=43
offset=2825
pitch_keycenter=E3
sample=Tuba_fall_MF_E3.opus

<region>
hikey=F2
hivel=84
lokey=E2
lovel=43
offset=4049
pitch_keycenter=E2
sample=Tuba_fall_MF_E2.opus

<region>
hikey=D#4
hivel=84
lokey=D4
lovel=43
offset=17813
pitch_keycenter=D4
sample=Tuba_fall_MF_D4.opus

<region>
hikey=D#3
hivel=84
lokey=D3
lovel=43
offset=1976
pitch_keycenter=D3
sample=Tuba_fall_MF_D3.opus

<region>
hikey=D#2
hivel=84
lokey=D2
lovel=43
offset=2596
pitch_keycenter=D2
sample=Tuba_fall_MF_D2.opus

<region>
hivel=84
key=C5
lovel=43
offset=18210
sample=Tuba_fall_MF_C5.opus

<region>
hikey=C#4
hivel=84
lokey=C4
lovel=43
offset=1595
sample=Tuba_fall_MF_C4.opus

<region>
hikey=C#3
hivel=84
lokey=C3
lovel=43
offset=1366
pitch_keycenter=C3
sample=Tuba_fall_MF_C3.opus

<region>
hikey=B4
hivel=84
lokey=A#4
lovel=43
pitch_keycenter=A#4
sample=Tuba_fall_MF_A#4.opus

<region>
hikey=B3
hivel=84
lokey=A#3
lovel=43
offset=1595
pitch_keycenter=A#3
sample=Tuba_fall_MF_A#3.opus

<region>
hikey=B2
hivel=84
lokey=A#2
lovel=43
offset=1573
pitch_keycenter=A#2
sample=Tuba_fall_MF_A#2.opus

<region>
hikey=A4
hivel=127
lokey=G#4
lovel=85
offset=17502
pitch_keycenter=G#4
sample=Tuba_fall_FF_G#4.opus

<region>
hikey=A3
hivel=127
lokey=G#3
lovel=85
offset=1
pitch_keycenter=G#3
sample=Tuba_fall_FF_G#3.opus

<region>
hikey=A2
hivel=127
lokey=G#2
lovel=85
offset=2787
pitch_keycenter=G#2
sample=Tuba_fall_FF_G#2.opus

<region>
hikey=G4
hivel=127
lokey=F#4
lovel=85
offset=18291
pitch_keycenter=F#4
sample=Tuba_fall_FF_F#4.opus

<region>
hikey=G3
hivel=127
lokey=F#3
lovel=85
offset=20318
pitch_keycenter=F#3
sample=Tuba_fall_FF_F#3.opus

<region>
hikey=G2
hivel=127
lokey=F#2
lovel=85
offset=1710
pitch_keycenter=F#2
sample=Tuba_fall_FF_F#2.opus

<region>
hikey=F4
hivel=127
lokey=E4
lovel=85
offset=2579
pitch_keycenter=E4
sample=Tuba_fall_FF_E4.opus

<region>
hikey=F3
hivel=127
lokey=E3
lovel=85
offset=121
pitch_keycenter=E3
sample=Tuba_fall_FF_E3.opus

<region>
hikey=F2
hivel=127
lokey=E2
lovel=85
offset=3198
pitch_keycenter=E2
sample=Tuba_fall_FF_E2.opus

<region>
hikey=D#4
hivel=127
lokey=D4
lovel=85
offset=1953
pitch_keycenter=D4
sample=Tuba_fall_FF_D4.opus

<region>
hikey=D#3
hivel=127
lokey=D3
lovel=85
offset=1560
pitch_keycenter=D3
sample=Tuba_fall_FF_D3.opus

<region>
hikey=D#2
hivel=127
lokey=D2
lovel=85
offset=784
pitch_keycenter=D2
sample=Tuba_fall_FF_D2.opus

<region>
hivel=127
key=C5
lovel=85
offset=17418
sample=Tuba_fall_FF_C5.opus

<region>
hikey=C#4
hivel=127
lokey=C4
lovel=85
offset=19404
sample=Tuba_fall_FF_C4.opus

<region>
hikey=C#3
hivel=127
lokey=C3
lovel=85
offset=1823
pitch_keycenter=C3
sample=Tuba_fall_FF_C3.opus

<region>
hikey=B4
hivel=127
lokey=A#4
lovel=85
offset=16433
pitch_keycenter=A#4
sample=Tuba_fall_FF_A#4.opus

<region>
hikey=B3
hivel=127
lokey=A#3
lovel=85
offset=1193
pitch_keycenter=A#3
sample=Tuba_fall_FF_A#3.opus

<region>
hikey=B2
hivel=127
lokey=A#2
lovel=85
offset=1980
pitch_keycenter=A#2
sample=Tuba_fall_FF_A#2.opus

